<?xml version="1.0" encoding="UTF-8"?>
<!--Generator: Apple Native CoreSVG 326-->
<!DOCTYPE svg
PUBLIC "-//W3C//DTD SVG 1.1//EN"
       "http://www.w3.org/Graphics/SVG/1.1/DTD/svg11.dtd">
<svg version="1.1" xmlns="http://www.w3.org/2000/svg" xmlns:xlink="http://www.w3.org/1999/xlink" viewBox="0 0 26.127 19.4927">
 <g>
  <rect height="19.4927" opacity="0" width="26.127" x="0" y="0"/>
  <path d="M20.2617 17.8213C23.3584 17.8213 25.7783 15.5552 25.7783 12.7354C25.7783 10.582 24.5376 8.71582 22.5381 7.875C22.5586 3.30176 19.2671 0 15.0732 0C12.2944 0 10.3154 1.48682 9.08496 3.28125C6.5625 2.54297 3.81445 4.46045 3.76318 7.33154C1.4458 7.70068 0 9.77197 0 12.2739C0 15.2886 2.63525 17.8213 6.14209 17.8213ZM20.2617 16.1704L6.14209 16.1704C3.55811 16.1704 1.65088 14.3657 1.65088 12.2739C1.65088 10.2231 2.8916 8.59277 5.06543 8.59277C5.20898 8.59277 5.26025 8.521 5.26025 8.3877C5.26025 5.22949 7.53662 4.29639 9.63867 4.9834C9.76172 5.02441 9.8335 4.99365 9.89502 4.88086C10.8896 3.10693 12.4175 1.65088 15.0732 1.65088C18.4365 1.65088 20.7642 4.31689 20.9385 7.3623C20.9692 7.83398 20.9385 8.3877 20.8975 8.86963C20.8872 9.00293 20.9385 9.07471 21.0615 9.10547C22.9277 9.51562 24.1274 10.8794 24.1274 12.7354C24.1274 14.6426 22.4458 16.1704 20.2617 16.1704Z" fill="#293462"/>
  <path d="M13.3711 14.3452C15.668 14.3452 17.5034 12.4995 17.5034 10.2026C17.5034 9.86426 17.2061 9.57715 16.8677 9.57715C16.519 9.57715 16.2319 9.86426 16.2319 10.2026C16.2319 11.792 14.9604 13.0737 13.3711 13.0737C11.792 13.0737 10.5205 11.792 10.5205 10.2026C10.5205 8.87988 11.4229 7.78271 12.6328 7.45459L12.6328 8.66455C12.6328 9.10547 13.1147 9.27979 13.4531 8.98242L15.3604 7.3418C15.6782 7.06494 15.6577 6.65479 15.3604 6.39844L13.4531 4.77832C13.1147 4.50146 12.6328 4.66553 12.6328 5.10645L12.6328 6.1626C10.7974 6.45996 9.24902 8.11084 9.24902 10.1719C9.24902 12.4995 11.0845 14.3452 13.3711 14.3452Z" fill="#293462"/>
 </g>
</svg>
