<?xml version="1.0" encoding="UTF-8"?>
<!--Generator: Apple Native CoreSVG 326-->
<!DOCTYPE svg
PUBLIC "-//W3C//DTD SVG 1.1//EN"
       "http://www.w3.org/Graphics/SVG/1.1/DTD/svg11.dtd">
<svg version="1.1" xmlns="http://www.w3.org/2000/svg" xmlns:xlink="http://www.w3.org/1999/xlink" viewBox="0 0 24.835 21.5845">
 <g>
  <rect height="21.5845" opacity="0" width="24.835" x="0" y="0"/>
  <path d="M9.47461 19.9131L9.47461 13.8838C9.47461 13.4121 9.79248 13.1045 10.2642 13.1045L14.2324 13.1045C14.7144 13.1045 15.0117 13.4121 15.0117 13.8838L15.0117 19.9131ZM3.19922 19.3081C3.19922 20.7334 4.06055 21.564 5.50635 21.564L18.9902 21.564C20.436 21.564 21.2871 20.7334 21.2871 19.3081L21.2871 11.1665L12.8584 4.10156C12.4688 3.77344 12.0073 3.78369 11.6279 4.10156L3.19922 11.1665ZM0.881836 10.9512C1.16895 10.9512 1.40479 10.7974 1.62012 10.623L11.8843 1.99951C11.9971 1.90723 12.1304 1.85596 12.2432 1.85596C12.3662 1.85596 12.4893 1.90723 12.6021 1.99951L22.8765 10.623C23.0815 10.7974 23.3174 10.9512 23.6045 10.9512C24.1582 10.9512 24.4863 10.5513 24.4863 10.1309C24.4863 9.89502 24.394 9.64893 24.1582 9.46436L13.4736 0.492188C13.084 0.164062 12.6636 0 12.2432 0C11.8228 0 11.4023 0.164062 11.0127 0.492188L0.328125 9.46436C0.102539 9.64893 0 9.89502 0 10.1309C0 10.5513 0.328125 10.9512 0.881836 10.9512ZM18.9185 5.50635L21.4922 7.68018L21.4922 3.05566C21.4922 2.60449 21.2051 2.31738 20.7539 2.31738L19.6567 2.31738C19.2158 2.31738 18.9185 2.60449 18.9185 3.05566Z" fill="#293462"/>
 </g>
</svg>
