<?xml version="1.0" encoding="UTF-8"?>
<!--Generator: Apple Native CoreSVG 326-->
<!DOCTYPE svg
PUBLIC "-//W3C//DTD SVG 1.1//EN"
       "http://www.w3.org/Graphics/SVG/1.1/DTD/svg11.dtd">
<svg version="1.1" xmlns="http://www.w3.org/2000/svg" xmlns:xlink="http://www.w3.org/1999/xlink" viewBox="0 0 20.7847 18.8979">
 <g>
  <rect height="18.8979" opacity="0" width="20.7847" x="0" y="0"/>
  <path d="M3.21973 18.8979L17.2266 18.8979C19.3696 18.8979 20.436 17.8315 20.436 15.7192L20.436 3.19922C20.436 1.08691 19.3696 0.0205078 17.2266 0.0205078L3.21973 0.0205078C1.07666 0.0205078 0 1.07666 0 3.19922L0 15.7192C0 17.8418 1.07666 18.8979 3.21973 18.8979ZM3.06592 17.2471C2.15332 17.2471 1.65088 16.7651 1.65088 15.8115L1.65088 6.14209C1.65088 5.19873 2.15332 4.70654 3.06592 4.70654L17.3599 4.70654C18.2725 4.70654 18.7852 5.19873 18.7852 6.14209L18.7852 15.8115C18.7852 16.7651 18.2725 17.2471 17.3599 17.2471Z" fill="#293462"/>
  <path d="M4.8501 8.521L15.6167 8.521C15.9756 8.521 16.2524 8.23389 16.2524 7.875C16.2524 7.52637 15.9756 7.25977 15.6167 7.25977L4.8501 7.25977C4.4707 7.25977 4.2041 7.52637 4.2041 7.875C4.2041 8.23389 4.4707 8.521 4.8501 8.521ZM4.8501 11.6074L15.6167 11.6074C15.9756 11.6074 16.2524 11.3408 16.2524 10.9922C16.2524 10.623 15.9756 10.3462 15.6167 10.3462L4.8501 10.3462C4.4707 10.3462 4.2041 10.623 4.2041 10.9922C4.2041 11.3408 4.4707 11.6074 4.8501 11.6074ZM4.8501 14.6938L11.6895 14.6938C12.0483 14.6938 12.3252 14.4272 12.3252 14.0786C12.3252 13.7197 12.0483 13.4326 11.6895 13.4326L4.8501 13.4326C4.4707 13.4326 4.2041 13.7197 4.2041 14.0786C4.2041 14.4272 4.4707 14.6938 4.8501 14.6938Z" fill="#293462"/>
 </g>
</svg>
